<svg xmlns="http://www.w3.org/2000/svg" width="24" height="24" viewBox="0 0 24 24" fill="none" stroke="currentColor" stroke-width="2" stroke-linecap="round" stroke-linejoin="round">
  <!-- Center circle -->
  <circle cx="12" cy="12" r="3" fill="#d18ee2" stroke="#ff7714"/>

  <!-- Petals path - filled with purple -->
  <path d="M12 16.5A4.5 4.5 0 1 1 7.5 12 4.5 4.5 0 1 1 12 7.5a4.5 4.5 0 1 1 4.5 4.5 4.5 4.5 0 1 1-4.5 4.5"
         stroke="#4c6ee6" stroke-width="2"/>

  <!-- Center lines -->
  <path d="M12 7.5V9" stroke="#ff7714"/>
  <path d="M7.5 12H9" stroke="#ff7714"/>
  <path d="M16.5 12H15" stroke="#ff7714"/>
  <path d="M12 16.5V15" stroke="#ff7714"/>

  <!-- Diagonal lines -->
  <path d="m8 8 1.88 1.88" stroke="#ff7714"/>
  <path d="M14.12 9.88 16 8" stroke="#ff7714"/>
  <path d="m8 16 1.88-1.88" stroke="#ff7714"/>
  <path d="M14.12 14.12 16 16" stroke="#ff7714"/>
</svg>
